<svg width="12" height="12" viewBox="0 0 12 12" fill="none" xmlns="http://www.w3.org/2000/svg">
<path d="M9.33334 11.3333C9.14445 11.3333 8.98612 11.2694 8.85834 11.1416C8.73056 11.0138 8.66667 10.8555 8.66667 10.6666V7.33329C8.66667 7.1444 8.73056 6.98607 8.85834 6.85829C8.98612 6.73051 9.14445 6.66663 9.33334 6.66663H10.6667C10.8556 6.66663 11.0139 6.73051 11.1417 6.85829C11.2694 6.98607 11.3333 7.1444 11.3333 7.33329V10.6666C11.3333 10.8555 11.2694 11.0138 11.1417 11.1416C11.0139 11.2694 10.8556 11.3333 10.6667 11.3333H9.33334ZM5.33334 11.3333C5.14445 11.3333 4.98612 11.2694 4.85834 11.1416C4.73056 11.0138 4.66667 10.8555 4.66667 10.6666V1.33329C4.66667 1.1444 4.73056 0.98607 4.85834 0.858293C4.98612 0.730515 5.14445 0.666626 5.33334 0.666626H6.66667C6.85556 0.666626 7.01389 0.730515 7.14167 0.858293C7.26945 0.98607 7.33334 1.1444 7.33334 1.33329V10.6666C7.33334 10.8555 7.26945 11.0138 7.14167 11.1416C7.01389 11.2694 6.85556 11.3333 6.66667 11.3333H5.33334ZM1.33334 11.3333C1.14445 11.3333 0.986116 11.2694 0.858338 11.1416C0.730561 11.0138 0.666672 10.8555 0.666672 10.6666V4.66663C0.666672 4.47774 0.730561 4.3194 0.858338 4.19163C0.986116 4.06385 1.14445 3.99996 1.33334 3.99996H2.66667C2.85556 3.99996 3.01389 4.06385 3.14167 4.19163C3.26945 4.3194 3.33334 4.47774 3.33334 4.66663V10.6666C3.33334 10.8555 3.26945 11.0138 3.14167 11.1416C3.01389 11.2694 2.85556 11.3333 2.66667 11.3333H1.33334Z" fill="#84602C"/>
</svg>
